<?xml version="1.0" encoding="UTF-8" standalone="no"?>
<!-- Created with Inkscape (http://www.inkscape.org/) -->

<svg
   width="1024"
   height="1024"
   viewBox="0 0 270.93333 270.93333"
   version="1.1"
   id="svg323"
   inkscape:version="1.2 (dc2aedaf03, 2022-05-15)"
   sodipodi:docname="ic_launcher.svg"
   xml:space="preserve"
   inkscape:export-filename=".\icon.png"
   inkscape:export-xdpi="96"
   inkscape:export-ydpi="96"
   xmlns:inkscape="http://www.inkscape.org/namespaces/inkscape"
   xmlns:sodipodi="http://sodipodi.sourceforge.net/DTD/sodipodi-0.dtd"
   xmlns="http://www.w3.org/2000/svg"
   xmlns:svg="http://www.w3.org/2000/svg"><sodipodi:namedview
     id="namedview325"
     pagecolor="#ffffff"
     bordercolor="#666666"
     borderopacity="1.0"
     inkscape:showpageshadow="2"
     inkscape:pageopacity="1"
     inkscape:pagecheckerboard="0"
     inkscape:deskcolor="#d1d1d1"
     inkscape:document-units="px"
     showgrid="false"
     inkscape:zoom="0.30142063"
     inkscape:cx="550.72541"
     inkscape:cy="403.09119"
     inkscape:window-width="1350"
     inkscape:window-height="1160"
     inkscape:window-x="484"
     inkscape:window-y="47"
     inkscape:window-maximized="0"
     inkscape:current-layer="layer1" /><defs
     id="defs320"><clipPath
       clipPathUnits="userSpaceOnUse"
       id="clipPath4458"><path
         d="M 0,807 H 712 V 0 H 0 Z"
         id="path4456" /></clipPath><mask
       maskUnits="userSpaceOnUse"
       x="0"
       y="0"
       width="1"
       height="1"
       id="mask4472"><g
         id="g4488"><g
           clip-path="url(#clipPath4466)"
           id="g4486"><path
             d="m 163.75,548.25 h 384.5 v -384.5 h -384.5 z"
             style="fill:#000000;fill-opacity:1;fill-rule:nonzero;stroke:none"
             id="path4474" /><g
             id="g4484"><g
               id="g4476" /><g
               id="g4482"><g
                 clip-path="url(#clipPath4470)"
                 id="g4480"><path
                   d="M 99.917,612.083 H 612.586 V 99.414 H 99.917 Z"
                   style="fill:#ffffff;fill-opacity:1;fill-rule:nonzero;stroke:none"
                   id="path4478" /></g></g></g></g></g></mask><clipPath
       clipPathUnits="userSpaceOnUse"
       id="clipPath4466"><path
         d="m 163.75,548.25 h 384.5 v -384.5 h -384.5 z"
         id="path4464" /></clipPath><clipPath
       clipPathUnits="userSpaceOnUse"
       id="clipPath4470"><path
         d="m 163.75,548.25 h 384.5 v -384.5 h -384.5 z"
         id="path4468" /></clipPath><clipPath
       clipPathUnits="userSpaceOnUse"
       id="clipPath4496"><path
         d="m 163.75,548.25 h 384.5 v -384.5 h -384.5 z"
         id="path4494" /></clipPath><clipPath
       clipPathUnits="userSpaceOnUse"
       id="clipPath4500"><path
         d="M 164,548 H 548 V 164 H 164 Z"
         id="path4498" /></clipPath><clipPath
       clipPathUnits="userSpaceOnUse"
       id="clipPath4504"><path
         d="M 164.066,547.968 H 547.999 V 163.956 H 164.066 Z"
         id="path4502" /></clipPath><clipPath
       clipPathUnits="userSpaceOnUse"
       id="clipPath4508"><path
         d="M 164.02,547.93 H 547.835 V 164.176 H 164.02 Z"
         id="path4506" /></clipPath><clipPath
       clipPathUnits="userSpaceOnUse"
       id="clipPath4512"><path
         d="m 299.75,548.25 h 0.5 v -384.5 h -0.5 z"
         id="path4510" /></clipPath><clipPath
       clipPathUnits="userSpaceOnUse"
       id="clipPath4516"><path
         d="m 355.75,548.25 h 0.5 v -384.5 h -0.5 z"
         id="path4514" /></clipPath><clipPath
       clipPathUnits="userSpaceOnUse"
       id="clipPath4520"><path
         d="m 411.83,548.25 h 0.5 v -384.5 h -0.5 z"
         id="path4518" /></clipPath><clipPath
       clipPathUnits="userSpaceOnUse"
       id="clipPath4524"><path
         d="m 163.9,412.1 h 383.933 v -0.2 H 163.9 Z"
         id="path4522" /></clipPath><clipPath
       clipPathUnits="userSpaceOnUse"
       id="clipPath4528"><path
         d="m 163.9,356.1 h 383.933 v -0.2 H 163.9 Z"
         id="path4526" /></clipPath><clipPath
       clipPathUnits="userSpaceOnUse"
       id="clipPath4532"><path
         d="m 163.75,300.25 h 384.233 v -0.5 H 163.75 Z"
         id="path4530" /></clipPath></defs><g
     inkscape:groupmode="layer"
     id="layer2"
     inkscape:label="Lager 2" /><g
     inkscape:label="Lager 1"
     inkscape:groupmode="layer"
     id="layer1"><rect
       style="fill:#ffffff;fill-opacity:1;stroke-width:0;stroke-linecap:round;stroke-linejoin:round"
       id="rect7632"
       width="270.93332"
       height="270.93332"
       x="-1.110223e-16"
       y="0" /><rect
       style="fill:#b7b7b7;fill-opacity:1;stroke-width:0;stroke-linecap:round;stroke-linejoin:round"
       id="rect1178"
       width="79.779831"
       height="79.493889"
       x="8.0123959"
       y="9.0115166"
       ry="11.723918" /><g
       id="g7513"
       transform="matrix(1.0825875,0,0,1.0825875,29.75784,-51.565677)"
       style="stroke-width:0.92371"><rect
         style="fill:#75cff9;fill-opacity:1;stroke-width:0;stroke-linecap:round;stroke-linejoin:round"
         id="rect1858"
         width="73.693581"
         height="73.429451"
         x="141.79971"
         y="55.955933"
         ry="10.829522" /><path
         sodipodi:nodetypes="cssssssssssssssssssssssssssssssssssssssssssscssssscsssssssscsssssssssssscc"
         inkscape:connector-curvature="0"
         id="path1856"
         d="m 157.45352,99.049592 4.8888,-6.346708 c 0.64437,-0.836552 0.60469,-0.762148 0.53636,-1.650757 -0.0342,-0.444302 -0.12801,-1.987525 -0.0232,-3.776016 0.10478,-1.788481 0.40819,-3.822233 0.49221,-4.570927 0.19288,-1.719704 -0.0555,-3.17712 0.28547,-4.216574 0.37823,-1.153135 1.14933,-2.661467 1.35408,-3.091184 0.73158,-1.535549 0.79321,-3.166959 1.26776,-3.998201 0.53256,-0.932782 1.25864,-1.556259 1.37944,-2.063765 0.12079,-0.507503 0.36235,-1.522514 0.41067,-1.860855 0.0483,-0.338331 0.67641,-0.870009 1.08708,-0.749169 0.41069,0.120833 1.20785,0.38667 1.52192,0.942509 0.31402,0.555836 0.57977,2.561691 0.38651,3.576704 -0.19326,1.015011 -0.84551,1.570853 -0.96629,1.981687 -0.12079,0.410839 -0.72473,3.141702 -0.6281,3.625043 0.0967,0.48334 0.0967,1.40168 0.36237,1.522513 0.26573,0.120837 1.1837,0.507505 1.47358,0.459175 0.28989,-0.04837 1.37699,-0.217505 1.83597,-0.435005 0.45898,-0.217498 1.93257,-1.256677 2.43989,-1.715854 0.50729,-0.459171 1.83595,-1.740019 2.10167,-2.054189 0.26573,-0.314168 3.55113,-4.760885 3.84101,-5.099223 0.28989,-0.338334 2.609,-3.431703 2.97135,-3.697537 0.36236,-0.265839 1.15955,-0.870011 1.49774,-0.918345 0.33821,-0.04833 0.84552,0.120836 1.06293,0.338338 0.21741,0.217504 0.6281,0.821676 0.43481,1.256683 -0.19324,0.435002 -0.3865,1.305011 -0.89378,1.957522 -0.50732,0.652505 -0.79721,0.894173 -1.11125,1.450013 -0.31403,0.555843 -1.06291,2.416693 -1.3528,2.803363 -0.28988,0.38667 -2.41573,3.576707 -2.53651,3.842541 -0.12081,0.265838 -0.48316,0.82168 -0.38653,0.918345 0.0966,0.09667 0.26572,0.410835 0.36236,0.31417 0.0966,-0.09667 1.0871,-0.845844 1.3528,-1.208344 0.26575,-0.362508 1.35282,-1.788356 1.78765,-2.320031 0.43482,-0.531668 1.47358,-1.860853 1.81179,-2.247524 0.3382,-0.386667 0.94212,-0.845841 1.32866,-1.329179 0.38651,-0.483339 1.13539,-1.425845 1.52191,-1.860854 0.3865,-0.435003 1.78764,-1.740015 2.19833,-1.812523 0.41066,-0.07249 1.11121,-0.144997 1.61852,0.410839 0.5073,0.555842 0.48314,1.160017 0.14495,1.595024 -0.33822,0.434998 -1.81181,2.392521 -2.24663,2.875864 -0.43484,0.483335 -1.4736,2.199188 -1.76349,2.779195 -0.28988,0.580003 -0.41067,0.749175 -0.79719,1.232511 -0.38652,0.483343 -2.00505,2.150859 -2.46404,2.851703 -0.45899,0.700835 -1.18372,1.570854 -1.3045,1.836685 -0.12079,0.265836 -0.1691,0.362505 -0.1691,0.362505 0,0 0.41067,-0.02414 0.62808,-0.386674 0.21744,-0.362498 1.57024,-1.812516 2.19831,-2.440859 0.6281,-0.628339 1.93259,-1.788357 2.39159,-2.392529 0.45898,-0.604172 1.93259,-2.271686 2.41572,-2.706697 0.48315,-0.435001 1.11125,-1.208344 1.66686,-1.232512 0.55562,-0.02417 0.99044,0.169172 1.20787,0.531674 0.2174,0.362506 0.0966,0.966678 -0.0725,1.280851 -0.16912,0.314162 -1.28033,1.86085 -1.73933,2.465022 -0.459,0.604179 -2.29496,3.359208 -2.68147,3.890875 -0.3865,0.531675 -1.15954,1.450016 -1.66686,1.957526 -0.50728,0.507503 -1.66683,1.32918 -2.07752,1.933355 -0.41068,0.604172 -0.67639,1.208347 -0.67638,1.450016 0,0.241669 0.28988,0.773344 0.57975,0.725009 0.28989,-0.04837 0.94216,-0.362507 1.35282,-0.580008 0.41066,-0.217502 1.4736,-0.410841 1.4736,-0.410841 0,0 0.79719,-0.507507 1.52188,-0.942507 0.72474,-0.435002 1.64272,-1.015013 2.24666,-1.667521 0.60392,-0.652506 1.47359,-1.039173 2.12581,-0.966674 0.65227,0.07251 1.15958,0.386663 1.13541,0.700838 -0.024,0.314176 -1.37697,2.199191 -1.88426,2.658365 -0.5073,0.45917 -2.63314,2.634195 -3.23708,2.948369 -0.60394,0.314169 -1.01461,0.53167 -1.57021,0.845833 -0.55563,0.31417 -2.00506,1.135849 -2.7781,1.812523 -0.77302,0.676668 -2.89886,2.271689 -3.69606,2.827539 -0.79717,0.555835 -4.83147,3.625037 -5.70112,4.060043 -0.86968,0.434999 -1.64269,0.725004 -1.95675,1.135838 -0.31403,0.410843 -2.22054,2.563646 -2.70367,3.336986 -0.48315,0.77334 -4.89822,6.35626 -4.89822,6.35626 z"
         style="fill:#eaeaea;fill-opacity:1;fill-rule:evenodd;stroke:none;stroke-width:0.244398px;stroke-linecap:butt;stroke-linejoin:miter;stroke-opacity:1" /><path
         sodipodi:nodetypes="cssssssssssssssssssssssssssssssssssssssssssscssssscsssssssscsssssssssssscc"
         inkscape:connector-curvature="0"
         id="path4177"
         d="m 160.8319,111.42503 5.30629,-6.88872 c 0.69941,-0.90799 0.65633,-0.82723 0.58217,-1.79173 -0.0371,-0.48224 -0.13893,-2.15726 -0.0252,-4.098485 0.11374,-1.941219 0.44306,-4.148656 0.53426,-4.96129 0.20936,-1.866567 -0.0602,-3.448448 0.30984,-4.576671 0.41054,-1.251615 1.2475,-2.888757 1.46972,-3.355174 0.79406,-1.666685 0.86095,-3.437418 1.37604,-4.339651 0.57804,-1.012441 1.36612,-1.689163 1.49724,-2.240012 0.1311,-0.550843 0.39331,-1.652538 0.44575,-2.019774 0.0524,-0.367224 0.73416,-0.944308 1.1799,-0.813149 0.44576,0.131152 1.31101,0.419692 1.6519,1.023 0.34083,0.603304 0.62928,2.780465 0.41951,3.88216 -0.20976,1.101693 -0.91771,1.705004 -1.0488,2.150925 -0.1311,0.445925 -0.78663,3.410004 -0.68175,3.934624 0.1049,0.524617 0.1049,1.521385 0.39332,1.652537 0.28843,0.131156 1.2848,0.550844 1.59942,0.498388 0.31465,-0.0525 1.49459,-0.236079 1.99278,-0.472157 0.49817,-0.236071 2.0976,-1.363995 2.64825,-1.862388 0.55061,-0.498383 1.99275,-1.888616 2.28116,-2.229616 0.28843,-0.341 3.8544,-5.167469 4.16903,-5.534701 0.31464,-0.367229 2.83181,-3.724776 3.2251,-4.013312 0.39331,-0.288542 1.25859,-0.944311 1.62566,-0.996772 0.36708,-0.05246 0.91772,0.131155 1.15369,0.367233 0.23598,0.236078 0.68174,0.891846 0.47196,1.364003 -0.20976,0.472153 -0.41952,1.416461 -0.97013,2.124696 -0.55064,0.708232 -0.86527,0.97054 -1.20614,1.573848 -0.34085,0.603312 -1.15369,2.62308 -1.46833,3.042773 -0.31464,0.419691 -2.62203,3.88216 -2.75313,4.170697 -0.13111,0.288539 -0.52442,0.891851 -0.41954,0.996771 0.10488,0.104925 0.28843,0.445921 0.3933,0.341 0.10488,-0.104923 1.17994,-0.918079 1.46833,-1.311535 0.28845,-0.393468 1.46836,-1.941085 1.94032,-2.518164 0.47196,-0.577074 1.59943,-2.019774 1.9665,-2.439466 0.3671,-0.419688 1.0226,-0.918076 1.44215,-1.442692 0.41952,-0.524616 1.23235,-1.547612 1.65187,-2.019772 0.41952,-0.472157 1.94031,-1.888616 2.38607,-1.967315 0.44575,-0.07868 1.20611,-0.15738 1.75675,0.445924 0.55063,0.603311 0.5244,1.259083 0.15732,1.731242 -0.3671,0.472149 -1.96652,2.596845 -2.43849,3.121465 -0.47198,0.524613 -1.59944,2.387001 -1.91408,3.016541 -0.31465,0.629536 -0.44575,0.813156 -0.86529,1.337769 -0.41951,0.52462 -2.17628,2.334544 -2.67445,3.09524 -0.49819,0.760685 -1.28481,1.705004 -1.41591,1.993536 -0.1311,0.288542 -0.18355,0.393466 -0.18355,0.393466 0,0 0.44575,-0.0262 0.68173,-0.419697 0.23599,-0.393457 1.70433,-1.967305 2.38605,-2.649309 0.68174,-0.682 2.09763,-1.941085 2.59583,-2.596853 0.49818,-0.655768 2.09764,-2.465688 2.62203,-2.937853 0.5244,-0.472148 1.20613,-1.311536 1.8092,-1.337768 0.60308,-0.02624 1.07503,0.18362 1.31103,0.57708 0.23596,0.393464 0.10486,1.049233 -0.0787,1.390237 -0.18355,0.340992 -1.38967,2.019768 -1.88787,2.675536 -0.49819,0.655776 -2.49093,3.646085 -2.91046,4.223158 -0.41952,0.57708 -1.25858,1.57385 -1.80922,2.124701 -0.5506,0.550844 -1.80918,1.442693 -2.25494,2.098465 -0.44576,0.655768 -0.73416,1.31154 -0.73414,1.573849 0,0.262307 0.31464,0.839388 0.62925,0.786923 0.31466,-0.0525 1.02263,-0.393464 1.46836,-0.62954 0.44574,-0.236076 1.59943,-0.445928 1.59943,-0.445928 0,0 0.86528,-0.550848 1.65188,-1.022997 0.78662,-0.472152 1.78299,-1.101695 2.43851,-1.809928 0.65549,-0.708232 1.59943,-1.12792 2.30737,-1.049228 0.70796,0.07871 1.25859,0.419685 1.23236,0.760689 -0.0262,0.341007 -1.49457,2.387004 -2.04518,2.885392 -0.55062,0.498385 -2.858,2.859157 -3.51352,3.200162 -0.65552,0.341 -1.10127,0.577076 -1.70432,0.918067 -0.60307,0.341 -2.17629,1.23285 -3.01535,1.96731 -0.83903,0.73446 -3.14642,2.46569 -4.01171,3.06901 -0.86524,0.60331 -5.24407,3.93463 -6.18799,4.40678 -0.94395,0.47214 -1.78297,0.78692 -2.12386,1.23284 -0.34085,0.44593 -2.41017,2.78258 -2.93456,3.62196 -0.52441,0.83939 -5.31653,6.8991 -5.31653,6.8991 z"
         style="fill:#000000;fill-opacity:1;fill-rule:evenodd;stroke:none;stroke-width:0.244398px;stroke-linecap:butt;stroke-linejoin:miter;stroke-opacity:1" /></g><rect
       style="fill:#b7b7b7;fill-opacity:1;stroke-width:0;stroke-linecap:round;stroke-linejoin:round"
       id="rect7515"
       width="79.779831"
       height="79.493889"
       x="95.640411"
       y="9.0115166"
       ry="11.723918" /><rect
       style="fill:#b7b7b7;fill-opacity:1;stroke-width:0;stroke-linecap:round;stroke-linejoin:round"
       id="rect7517"
       width="79.779831"
       height="79.493889"
       x="8.0123959"
       y="181.95493"
       ry="11.723918" /><rect
       style="fill:#b7b7b7;fill-opacity:1;stroke-width:0;stroke-linecap:round;stroke-linejoin:round"
       id="rect7519"
       width="79.779831"
       height="79.493889"
       x="95.225288"
       y="181.95493"
       ry="11.723918" /><rect
       style="fill:#b7b7b7;fill-opacity:1;stroke-width:0;stroke-linecap:round;stroke-linejoin:round"
       id="rect7523"
       width="79.779831"
       height="79.493889"
       x="8.0123959"
       y="95.483223"
       ry="11.723918" /><rect
       style="fill:#b7b7b7;fill-opacity:1;stroke-width:0;stroke-linecap:round;stroke-linejoin:round"
       id="rect7525"
       width="79.779831"
       height="79.493889"
       x="95.225288"
       y="95.483223"
       ry="11.723918" /><rect
       style="fill:#b7b7b7;fill-opacity:1;stroke-width:0;stroke-linecap:round;stroke-linejoin:round"
       id="rect7527"
       width="79.779831"
       height="79.493889"
       x="182.43819"
       y="95.4832"
       ry="11.723918" /></g></svg>
